# xmcd
#
# Track frame offsets: 
#        150
#        19595
#        39505
#        57785
#        77750
#        96313
#        113340
#        130900
#        147943
#        164918
#        182073
#        198920
#        214110
#        231095
#        248710
#        267305
#        283230
#        298198
#        315203
#        332800
#
# Disc length: 4656 seconds
#
# Revision: 2
# Processed by: cddbd v1.5.2PL0 Copyright (c) Steve Scherf et al.
# Submitted via: ExactAudioCopy v0.95b4
#
DISCID=25122e14
DTITLE=Various Artist - Nieuw nederlands peil 7 - cd 1
DYEAR=2002
DGENRE=Pop
TTITLE0=De Dijk - Ga in mijn schoenen staan
TTITLE1=Bløf - Blauwe ruis
TTITLE2=Marco Borsato - Zij
TTITLE3=Van Dik Hout and Kirsten - Stip aan de hemel
TTITLE4=Replay - Niemand
TTITLE5=Frank Boeijen - Liefde van mijn leven
TTITLE6=De Kast - Hetere vuren
TTITLE7=Memories Band - Jij en ik (Nog één keer samen)
TTITLE8=Acda en De Munnik (live met het Metropole Orkest o.l.v. Bakker
TTITLE8=) - Dag Esmee
TTITLE9=Fontane - Slapeloos
TTITLE10=Volumia! - Nog een keer
TTITLE11=Thé Lau - Speel
TTITLE12=Henk Westbroek - Evenbeeld
TTITLE13=Het Goede Doel - Achter de wolken schijnt de zon
TTITLE14=Marcel de Groot - Ja met mij
TTITLE15=Rowwen Hèze - Vergeate
TTITLE16=Skik - Dankjewel voor de zon
TTITLE17=Guus Meeuwis - Eerste lief
TTITLE18=Abel - Nooit meer bang
TTITLE19=Te Water - Nachtcafé
EXTD=
EXTT0=
EXTT1=
EXTT2=
EXTT3=
EXTT4=
EXTT5=
EXTT6=
EXTT7=
EXTT8=
EXTT9=
EXTT10=
EXTT11=
EXTT12=
EXTT13=
EXTT14=
EXTT15=
EXTT16=
EXTT17=
EXTT18=
EXTT19=
PLAYORDER=
